<?xml version="1.0" ?><!DOCTYPE svg  PUBLIC '-//W3C//DTD SVG 1.1//EN'  'http://www.w3.org/Graphics/SVG/1.1/DTD/svg11.dtd'><svg height="2048px" style="shape-rendering:geometricPrecision; text-rendering:geometricPrecision; image-rendering:optimizeQuality; fill-rule:evenodd; clip-rule:evenodd" viewBox="0 0 2048 2048" width="2048px" xml:space="preserve" xmlns="http://www.w3.org/2000/svg" xmlns:xlink="http://www.w3.org/1999/xlink"><defs><style type="text/css">
   <![CDATA[
    .fil1 {fill:none}
    .fil0 {fill:#424242}
   ]]>
  </style></defs><g id="Layer_x0020_1"><path class="fil0" d="M1776 1760l0 -1472 0 -16.0004 -16.0004 0 -1472 0 -16.0004 0 0 16.0004 0 1472 0 16.0004 16.0004 0 1472 0 16.0004 0 0 -16.0004zm-1339.44 -950.936l363.811 -372.192 27.4382 11.1248 0 134.839 334.904 308.431 208.161 -51.0886 15.437 26.4366 -215.026 228.536 440.651 494.221 -22.5 22.5626 -499.745 -441.879 -205.825 210.634 -27.1878 -13.8744 33.3685 -187.853 -284.81 -351.281 -156.426 8.44489 -12.2504 -27.0626z"/></g><rect class="fil1" height="2048" width="2048"/></svg>